<svg id="Capa_1" enable-background="new 0 0 512 512" height="512" viewBox="0 0 512 512" width="512" xmlns="http://www.w3.org/2000/svg" xmlns:xlink="http://www.w3.org/1999/xlink"><linearGradient id="SVGID_1_" gradientUnits="userSpaceOnUse" x1="256" x2="256" y1="485.137" y2="26.863"><stop offset="0" stop-color="#009efd"/><stop offset="1" stop-color="#2af598"/></linearGradient><g><g><path d="m470.995 67.869c-26.442-26.443-60.89-41.006-96.995-41.006s-70.553 14.563-96.995 41.005l-21.005 21.006-21.005-21.005c-26.442-26.443-60.89-41.006-96.995-41.006s-70.553 14.563-96.995 41.005c-26.443 26.443-41.005 61.6-41.005 98.995 0 37.361 14.534 72.486 40.931 98.92l215.069 219.354 215.069-219.353c26.397-26.435 40.931-61.559 40.931-98.921 0-37.395-14.562-72.552-41.005-98.994zm-28.285 169.705-186.71 190.428-186.71-190.428c-18.888-18.887-29.29-44-29.29-70.71s10.402-51.823 29.29-70.711c18.887-18.888 43.289-29.29 68.71-29.29s49.823 10.402 68.71 29.289l49.29 49.29 49.29-49.289c18.887-18.887 43.289-29.289 68.71-29.289s49.823 10.402 68.71 29.289c18.888 18.887 29.29 44 29.29 70.711s-10.402 51.822-29.29 70.71z" fill="url(#SVGID_1_)"/></g></g></svg>